<svg xmlns="http://www.w3.org/2000/svg" viewBox="0 0 64 64">
  <defs>
    <linearGradient id="bg" x1="8" y1="6" x2="56" y2="58" gradientUnits="userSpaceOnUse">
      <stop stop-color="#8b6cf0"/>
      <stop offset="1" stop-color="#403184"/>
    </linearGradient>
  </defs>
  <rect width="64" height="64" rx="16" fill="#0d1017"/>
  <rect x="7" y="7" width="50" height="50" rx="14" fill="url(#bg)"/>
  <path d="M20 31.5c0-8 5.2-13 12.6-13s12.5 5 12.5 13c0 5.1-2.1 9-5.6 11.1l4.6 4.7h-7.4l-2.2-2.5-1.9.2C25.2 45 20 39.8 20 31.5Zm7 0c0 4.8 2 7.5 5.6 7.5l.9-.1-3.4-3.7h7l.9 1c.4-1.2.6-2.8.6-4.7 0-4.7-2.1-7.4-6-7.4S27 26.8 27 31.5Z" fill="#fff"/>
  <circle cx="50" cy="14" r="3" fill="#6ee7b7"/>
</svg>
